<svg xmlns="http://www.w3.org/2000/svg" viewBox="0 0 136.68 114.19"><title>about_values-#-docs</title><g id="Layer_2" data-name="Layer 2"><g id="Layer_1-2" data-name="Layer 1"><circle cx="67.47" cy="47.78" r="18.85" style="fill:#4753a4"/><polyline points="60.33 48.42 65.47 53.76 74.28 42.49" style="fill:none;stroke:#fff;stroke-miterlimit:10;stroke-width:2.22342332629367px"/><rect x="22.48" y="2.79" width="89.97" height="89.97" rx="44.98" style="fill:none;stroke:#4753a4;stroke-miterlimit:10;stroke-width:0.5px"/><circle cx="78.45" cy="4.17" r="4.17" style="fill:#299cd8"/><circle cx="99.34" cy="16.52" r="5.9" style="fill:#fdb952"/><circle cx="57.46" cy="4.17" r="2.69" style="fill:#4753a4"/><polygon points="36.22 11.57 36.22 48.3 0 48.3 0 1 25.63 1 36.22 11.57" style="fill:#4753a4"/><line x1="7.67" y1="17.53" x2="28.56" y2="17.53" style="fill:none;stroke:#fff;stroke-miterlimit:10;stroke-width:1.66756749472025px"/><line x1="7.67" y1="23.76" x2="28.56" y2="23.76" style="fill:none;stroke:#7585d7;stroke-miterlimit:10;stroke-width:1.66756749472025px"/><line x1="7.67" y1="29.99" x2="28.56" y2="29.99" style="fill:none;stroke:#7585d7;stroke-miterlimit:10;stroke-width:1.66756749472025px"/><line x1="7.67" y1="36.22" x2="21.97" y2="36.22" style="fill:none;stroke:#7585d7;stroke-miterlimit:10;stroke-width:1.66756749472025px"/><polygon points="36.24 11.59 25.63 11.59 25.63 1 36.22 11.57 36.24 11.59" style="fill:#7585d7"/><polygon points="136.66 48.87 136.66 85.6 100.44 85.6 100.44 38.31 126.06 38.31 136.66 48.87" style="fill:#4753a4"/><line x1="108.11" y1="54.83" x2="129" y2="54.83" style="fill:none;stroke:#fff;stroke-miterlimit:10;stroke-width:1.66756749472025px"/><line x1="108.11" y1="61.06" x2="129" y2="61.06" style="fill:none;stroke:#7585d7;stroke-miterlimit:10;stroke-width:1.66756749472025px"/><line x1="108.11" y1="67.29" x2="129" y2="67.29" style="fill:none;stroke:#7585d7;stroke-miterlimit:10;stroke-width:1.66756749472025px"/><line x1="108.11" y1="73.53" x2="122.41" y2="73.53" style="fill:none;stroke:#7585d7;stroke-miterlimit:10;stroke-width:1.66756749472025px"/><polygon points="136.68 48.89 126.06 48.89 126.06 38.31 136.66 48.87 136.68 48.89" style="fill:#7585d7"/><polygon points="65.88 88.12 65.88 114.19 6.53 114.19 6.53 77.56 55.29 77.56 65.88 88.12" style="fill:#4753a4"/><line x1="14.67" y1="86.52" x2="35.57" y2="86.52" style="fill:none;stroke:#7585d7;stroke-miterlimit:10;stroke-width:1.66756749472025px"/><line x1="14.67" y1="92.76" x2="35.57" y2="92.76" style="fill:none;stroke:#fff;stroke-miterlimit:10;stroke-width:1.66756749472025px"/><line x1="14.67" y1="98.99" x2="35.57" y2="98.99" style="fill:none;stroke:#7585d7;stroke-miterlimit:10;stroke-width:1.66756749472025px"/><line x1="14.67" y1="105.22" x2="28.98" y2="105.22" style="fill:none;stroke:#7585d7;stroke-miterlimit:10;stroke-width:1.66756749472025px"/><line x1="41.7" y1="86.52" x2="48.85" y2="86.52" style="fill:none;stroke:#7585d7;stroke-miterlimit:10;stroke-width:1.66756749472025px"/><line x1="41.7" y1="92.76" x2="48.85" y2="92.76" style="fill:none;stroke:#fff;stroke-miterlimit:10;stroke-width:1.66756749472025px"/><line x1="41.7" y1="98.99" x2="48.85" y2="98.99" style="fill:none;stroke:#7585d7;stroke-miterlimit:10;stroke-width:1.66756749472025px"/><polygon points="65.91 88.14 55.29 88.14 55.29 77.56 65.88 88.12 65.91 88.14" style="fill:#7585d7"/></g></g></svg>