<svg version="1.1" xmlns="http://www.w3.org/2000/svg" xmlns:xlink="http://www.w3.org/1999/xlink" x="0px" y="0px" width="63.3px"
	height="63.3px" viewBox="0 0 63.3 63.3" style="enable-background:new 0 0 63.3 63.3;" xml:space="preserve">
	<style type="text/css">
		.st0{fill:none;stroke:#001F40;stroke-width:1.5;stroke-linejoin:round;stroke-miterlimit:10;}
		.st1{fill:none;stroke:#001F40;stroke-width:1.5;stroke-miterlimit:10;}
		.st2{fill:#3AADE2;}
		.st3{fill:none;stroke:#3AADE2;stroke-width:1.5;stroke-miterlimit:10;}
		.st4{fill:none;}
	</style>
	<defs>
	</defs>
	<g>
		<g>
			<path class="st0" d="M25.7,46.8h-17V4.4h21c2.8,2.7,8.1,8.1,11.3,11.4v11.5"/>
			<polyline class="st0" points="21.7,51 4.7,51 4.7,8.6 		"/>
			<polyline class="st1" points="29.7,4.4 29.7,15.7 41.1,15.7 		"/>
			<path class="st2" d="M44.4,49.7c-2.9,0-5.3-2.3-5.3-5.3c0-2.9,2.4-5.3,5.3-5.3c2.9,0,5.3,2.3,5.3,5.3
				C49.7,47.3,47.3,49.7,44.4,49.7z M58.6,46.3v-3.2l-4.5-0.7c-0.2-1.1-0.7-2.1-1.2-3.1l2.7-3.6l-2.3-2.3l-3.5,2.6
				c-1-0.6-2-1.1-3.2-1.3L46,30.4h-3.2l-0.6,4.3C41.1,35,40,35.4,39,36.1l-3.6-2.6l-2.3,2.3l2.7,3.6c-0.6,0.9-1,1.9-1.2,3.1l-4.5,0.7
				v3.2l4.6,0.7c0.3,1,0.7,1.9,1.2,2.8l-2.9,3.9l2.3,2.3l3.9-2.9c0.8,0.5,1.7,0.9,2.7,1.1l0.7,4.9H46l0.7-4.9c1-0.3,1.8-0.6,2.7-1.1
				l3.9,2.9l2.3-2.3l-2.9-3.8c0.6-0.9,1-1.8,1.2-2.8L58.6,46.3z"/>
				<line class="st3" x1="15.8" y1="21.2" x2="25.4" y2="21.2"/>
				<line class="st3" x1="15.8" y1="28" x2="31.1" y2="28"/>
				<line class="st3" x1="15.8" y1="34.8" x2="27.5" y2="34.8"/>
			</g>
			<rect class="st4" width="63.3" height="63.3"/>
		</g>
	</svg>