<svg xmlns="http://www.w3.org/2000/svg" viewBox="0 0 127 87.56"><title>icon_lender-intelligent</title><g id="Layer_2" data-name="Layer 2"><g id="Layer_1-2" data-name="Layer 1"><line x1="126.21" y1="86.72" x2="0.78" y2="86.72" style="fill:none;stroke:#001f40;stroke-linecap:round;stroke-linejoin:round;stroke-width:1.56948226690292px"/><rect x="76.17" y="26.22" width="32.76" height="60.5" style="fill:none;stroke:#001f40;stroke-linecap:round;stroke-linejoin:round;stroke-width:1.56948226690292px"/><rect x="82.29" y="15.89" width="20.52" height="10.32" style="fill:none;stroke:#001f40;stroke-linecap:round;stroke-linejoin:round;stroke-width:1.56948226690292px"/><rect x="85.52" y="11.58" width="14.07" height="4.31" style="fill:none;stroke:#001f40;stroke-linecap:round;stroke-linejoin:round;stroke-width:1.56948226690292px"/><line x1="13.41" y1="65.26" x2="31.64" y2="53.99" style="fill:none;stroke:#001f40;stroke-linecap:round;stroke-linejoin:round;stroke-width:1.56948226690292px"/><line x1="49.86" y1="65.26" x2="31.64" y2="53.99" style="fill:none;stroke:#001f40;stroke-linecap:round;stroke-linejoin:round;stroke-width:1.56948226690292px"/><line x1="18.32" y1="62.21" x2="18.32" y2="86.72" style="fill:none;stroke:#001f40;stroke-linecap:round;stroke-linejoin:round;stroke-width:1.56948226690292px"/><line x1="44.96" y1="62.21" x2="44.96" y2="86.72" style="fill:none;stroke:#001f40;stroke-linecap:round;stroke-linejoin:round;stroke-width:1.56948226690292px"/><polyline points="28.77 86.72 28.77 75.07 34.51 75.07 34.51 86.72" style="fill:none;stroke:#001f40;stroke-linecap:round;stroke-linejoin:round;stroke-width:1.67876105600877px"/><circle cx="31.64" cy="66.87" r="2.64" style="fill:none;stroke:#001f40;stroke-linecap:round;stroke-linejoin:round;stroke-width:1.56948226690292px"/><line x1="18.32" y1="80.85" x2="28.42" y2="80.85" style="fill:none;stroke:#001f40;stroke-linecap:round;stroke-linejoin:round;stroke-width:1.56948226690292px"/><line x1="34.86" y1="80.85" x2="44.96" y2="80.85" style="fill:none;stroke:#001f40;stroke-linecap:round;stroke-linejoin:round;stroke-width:1.56948226690292px"/><line x1="40.75" y1="59.17" x2="40.75" y2="53.99" style="fill:none;stroke:#001f40;stroke-linecap:round;stroke-linejoin:round;stroke-width:1.56948226690292px"/><circle cx="53.33" cy="76.1" r="3.47" style="fill:#299cd8"/><circle cx="9.07" cy="74.01" r="4.34" style="fill:#fdb952"/><line x1="9.07" y1="74.01" x2="9.07" y2="86.72" style="fill:none;stroke:#001f40;stroke-linecap:round;stroke-linejoin:round;stroke-width:1.56948226690292px"/><line x1="53.33" y1="76.1" x2="53.33" y2="86.72" style="fill:none;stroke:#001f40;stroke-linecap:round;stroke-linejoin:round;stroke-width:1.56948226690292px"/><polygon points="68.92 81.05 58.11 81.05 62.84 67.51 63.52 65.58 64.18 67.49 68.92 81.05" style="fill:#fdb952"/><line x1="63.52" y1="76.1" x2="63.52" y2="86.72" style="fill:none;stroke:#001f40;stroke-linecap:round;stroke-linejoin:round;stroke-width:1.56948226690292px"/><line x1="9.07" y1="82.94" x2="12.93" y2="79.08" style="fill:none;stroke:#001f40;stroke-linecap:round;stroke-linejoin:round;stroke-width:1.56948226690292px"/><circle cx="117.46" cy="74.01" r="4.34" style="fill:#299cd8"/><line x1="117.46" y1="74.01" x2="117.46" y2="86.72" style="fill:none;stroke:#001f40;stroke-linecap:round;stroke-linejoin:round;stroke-width:1.56948226690292px"/><line x1="117.46" y1="82.94" x2="113.61" y2="79.08" style="fill:none;stroke:#001f40;stroke-linecap:round;stroke-linejoin:round;stroke-width:1.56948226690292px"/><line x1="82.43" y1="33.88" x2="82.43" y2="79.05" style="fill:none;stroke:#001f40;stroke-linecap:round;stroke-linejoin:round;stroke-width:1.56948226690292px"/><line x1="87.49" y1="33.88" x2="87.49" y2="79.05" style="fill:none;stroke:#001f40;stroke-linecap:round;stroke-linejoin:round;stroke-width:1.56948226690292px"/><line x1="92.55" y1="33.88" x2="92.55" y2="79.05" style="fill:none;stroke:#001f40;stroke-linecap:round;stroke-linejoin:round;stroke-width:1.56948226690292px"/><line x1="97.62" y1="33.88" x2="97.62" y2="79.05" style="fill:none;stroke:#001f40;stroke-linecap:round;stroke-linejoin:round;stroke-width:1.56948226690292px"/><line x1="102.68" y1="33.88" x2="102.68" y2="79.05" style="fill:none;stroke:#001f40;stroke-linecap:round;stroke-linejoin:round;stroke-width:1.56948226690292px"/><line x1="86.65" y1="21.05" x2="98.84" y2="21.05" style="fill:none;stroke:#001f40;stroke-linecap:round;stroke-linejoin:round;stroke-width:1.56948226690292px"/><circle cx="24.19" cy="24.21" r="10.67" style="fill:#fdb952"/><line x1="8.45" y1="27.45" x2="19.74" y2="27.45" style="fill:none;stroke:#001f40;stroke-linecap:round;stroke-linejoin:round;stroke-width:1.56948226690292px"/><line x1="46.04" y1="39.26" x2="57.24" y2="39.26" style="fill:none;stroke:#001f40;stroke-linecap:round;stroke-linejoin:round;stroke-width:1.56948226690292px"/><line x1="19.68" y1="45.13" x2="30.88" y2="45.13" style="fill:none;stroke:#001f40;stroke-linecap:round;stroke-linejoin:round;stroke-width:1.56948226690292px"/><line x1="92.55" y1="11.07" x2="92.55" y2="0.78" style="fill:none;stroke:#001f40;stroke-linecap:round;stroke-linejoin:round;stroke-width:1.56948226690292px"/></g></g></svg>