<svg version="1.1" xmlns="http://www.w3.org/2000/svg" xmlns:xlink="http://www.w3.org/1999/xlink" x="0px" y="0px" width="63.3px"
	height="63.3px" viewBox="0 0 63.3 63.3" style="enable-background:new 0 0 63.3 63.3;" xml:space="preserve">
	<style type="text/css">
		.st0{fill:none;stroke:#001F40;stroke-width:1.5;stroke-miterlimit:10;}
		.st1{fill:#FDB952;}
		.st2{fill:#299CD8;}
		.st3{fill:none;stroke:#002249;stroke-width:1.3423;stroke-linecap:round;stroke-miterlimit:10;}
		.st4{fill:none;}
	</style>
	<defs>
	</defs>
	<g>
		<g>
			<path class="st0" d="M31.8,46.9H16.2c-1.3,0-2.3-1.1-2.3-2.3V30.9"/>
			<path class="st0" d="M30.6,19.9h16.8c1.3,0,2.3,1.1,2.3,2.3v10.1"/>
			<line class="st0" x1="24.3" y1="28.1" x2="43.3" y2="28.1"/>
			<line class="st0" x1="20.5" y1="33.9" x2="40.6" y2="33.9"/>
			<line class="st0" x1="20.3" y1="39.7" x2="35.3" y2="39.7"/>
			<circle class="st1" cx="14.5" cy="14.5" r="12"/>
			<circle class="st2" cx="48.8" cy="48.8" r="12"/>
			<g>
				<path class="st3" d="M5.3,21.7c1.8-3.2,5.3-5.3,9.2-5.3c3.9,0,7.3,2.1,9.2,5.3"/>
				<circle class="st3" cx="14.5" cy="10" r="4.2"/>
			</g>
			<path class="st3" d="M39.7,56.1c1.8-3.2,5.3-5.3,9.2-5.3c3.9,0,7.3,2.1,9.2,5.3"/>
			<circle class="st3" cx="48.8" cy="44.4" r="4.2"/>
		</g>
		<rect x="0" y="0" class="st4" width="63.3" height="63.3"/>
	</g>
</svg>