<!-- Generator: Adobe Illustrator 23.0.1, SVG Export Plug-In  -->
<svg version="1.1" xmlns="http://www.w3.org/2000/svg" xmlns:xlink="http://www.w3.org/1999/xlink" x="0px" y="0px" width="63.3px"
	height="63.3px" viewBox="0 0 63.3 63.3" style="enable-background:new 0 0 63.3 63.3;" xml:space="preserve">
	<style type="text/css">
		.st0{fill:#4753A4;}
		.st1{fill:#001F40;}
		.st2{fill:#3AADE2;}
		.st3{fill:#FDB952;}
		.st4{fill:none;}
	</style>
	<defs>
	</defs>
	<g>
		<g>
			<path class="st0" d="M47.4,50.4l0-0.1c-0.2,0-0.4-0.1-0.7-0.1c-0.2,0-0.3,0-0.5,0l0,0.1c-0.6,0.1-1.1,0.3-1.6,0.6l-0.1-0.1
				c0,0,0,0,0,0c-0.3,0.2-0.6,0.5-0.8,0.8l0.1,0c-0.3,0.4-0.5,1-0.6,1.6h-0.1c0,0.1,0,0.3,0,0.5c0,0.2,0,0.5,0.1,0.7h0
				c0.3,1.7,1.8,3,3.5,3c2,0,3.6-1.6,3.6-3.6C50.3,52.2,49.1,50.7,47.4,50.4z"/>
				<path class="st1" d="M55.4,13.6c-0.1-0.3-0.3-0.6-0.5-0.9c-0.7-0.9-1.7-1.4-2.9-1.4c-1,0-1.9,0.4-2.5,1l-0.1-0.1L35.1,7.6
					c0-0.2,0-0.4,0-0.5c0-2-1.6-3.6-3.6-3.6c-1.9,0-3.4,1.5-3.6,3.3l-11.4,9.6l0,0c-0.6-0.4-1.3-0.6-2-0.6c-2,0-3.6,1.6-3.6,3.6
					c0,1.4,0.8,2.6,2,3.2l0,0.1l-1.9,10.8l0,0.1c-1.8,0.2-3.1,1.7-3.1,3.6c0,1.8,1.4,3.3,3.1,3.6l0,0.1c0.1,0,0.2,0,0.3,0
					c0.3,0,0.6,0,0.8-0.1l0,0c0.5-0.1,1-0.3,1.4-0.6h0c0.4-0.3,0.7-0.6,0.9-1c0,0,0,0,0-0.1c0-0.1,0.1-0.2,0.1-0.2
					c0.1-0.2,0.2-0.4,0.2-0.5c0.1-0.2,0.1-0.5,0.1-0.7h0c0,0,0,0,0,0l16.1-10.2c0,0,0,0,0,0c0.1,0.1,0.2,0.2,0.3,0.2
					c0.1,0.1,0.2,0.1,0.4,0.2c0.1,0,0.1,0,0.2,0.1c0.2,0.1,0.4,0.1,0.6,0.2c0.2,0,0.4,0.1,0.6,0.1c0.2,0,0.4,0,0.5,0c0,0,0.1,0,0.1,0
					c0.1,0,0.2,0,0.2,0c0.1,0,0.2-0.1,0.3-0.1c0,0,0,0,0,0c0.1,0,0.2-0.1,0.3-0.1c0.5-0.2,1-0.6,1.3-1.1c0.2-0.3,0.4-0.7,0.5-1
					c0-0.1,0-0.1,0.1-0.2s0-0.1,0-0.2c0,0,0,0,0-0.1c0.1-0.2,0.1-0.4,0.1-0.6c0-0.2,0-0.5-0.1-0.7c0-0.1-0.1-0.3-0.1-0.4l13.1-5.5
					l0.2-0.1c0.6,0.5,1.3,0.7,2.1,0.7l0,0.1c0.4,0,0.9-0.1,1.2-0.2l0-0.1c1-0.4,1.9-1.2,2.2-2.3c0-0.1,0.1-0.2,0.1-0.3
					c0-0.2,0.1-0.3,0.1-0.5c0-0.1,0-0.2,0-0.4C55.7,14.5,55.6,14,55.4,13.6z M30.3,26.5l-15.4,9.7l0,0c-0.4-1.3-1.4-2.3-2.8-2.6l0-0.1
					L14,23l0-0.1c0.1,0,0.3,0.1,0.4,0.1c1.5,0,2.8-0.9,3.3-2.2l0.1,0l11.9,2.7l0,0c-0.1,0.3-0.1,0.6-0.1,1c0,0.1,0,0.2,0,0.3
					c0,0.1,0,0.2,0,0.3c0,0.1,0,0.2,0,0.3c0.1,0.4,0.2,0.7,0.4,1C30.2,26.3,30.3,26.4,30.3,26.5L30.3,26.5z M32.6,20.9
					c-1,0.2-1.8,0.7-2.3,1.5l0,0l-12.2-2.7l-0.1,0c0-0.1,0-0.2,0-0.3c0-0.8-0.3-1.6-0.7-2.2l0.1-0.1l10.7-9c0.5,1.4,1.8,2.5,3.4,2.5
					c0.1,0,0.2,0,0.4,0L32.6,20.9L32.6,20.9z M48.9,16.9l-12.7,5.4c-0.1-0.1-0.2-0.2-0.3-0.3c-0.1-0.1-0.1-0.1-0.2-0.2
					c-0.1-0.1-0.2-0.2-0.3-0.2c-0.1-0.1-0.2-0.1-0.3-0.2s-0.2-0.1-0.3-0.2c-0.1-0.1-0.2-0.1-0.3-0.1S34.3,21,34.2,21
					c-0.1,0-0.2-0.1-0.4-0.1L33,10.3c0.7-0.3,1.3-0.9,1.7-1.6l14,4.6l0.1,0.1c-0.2,0.5-0.4,1-0.4,1.6c0,0.7,0.2,1.4,0.6,2L48.9,16.9z"
					/>
					<path class="st1" d="M53.3,33.2c0,1.8-1.4,3.3-3.1,3.5l-2.8,13.5c-0.2,0-0.4-0.1-0.7-0.1c-0.2,0-0.3,0-0.5,0L49,36.7
						c-0.8-0.2-1.5-0.6-2.1-1.2l-12.1,5.8c0.1,0.4,0.2,0.8,0.2,1.2c0,0.4-0.1,0.9-0.2,1.2l9.7,7.2c-0.3,0.2-0.6,0.5-0.8,0.8l-9.4-7.1
						c-0.7,0.8-1.7,1.3-2.8,1.3c-0.4,0-0.8-0.1-1.2-0.2L19,55.2c0.1,0.2,0.1,0.3,0.1,0.5l23.9-2.3c0,0.1,0,0.3,0,0.5
						c0,0.2,0,0.5,0.1,0.7l-24,2.3c-0.3,1.7-1.8,3.1-3.6,3.1c-2,0-3.6-1.6-3.6-3.6c0-1.6,1-2.9,2.5-3.4L11,40.8c0.1,0,0.2,0,0.3,0
						c0.3,0,0.6,0,0.8-0.1l3.5,12c1.2,0,2.2,0.6,2.8,1.4l10.8-8.9c-0.7-0.6-1.2-1.4-1.3-2.3l-14.4-2.9c0.4-0.3,0.7-0.6,0.9-1L28,41.8
						c0.3-1.5,1.5-2.6,3-2.9L32.6,28c0.2,0,0.4,0.1,0.6,0.1c0.2,0,0.4,0,0.5,0l-1.6,10.9c0.9,0.2,1.7,0.7,2.2,1.4l12-5.8
						c-0.1-0.4-0.2-0.8-0.2-1.3c0-0.5,0.1-0.9,0.2-1.3l-10.2-5.3c0.2-0.3,0.4-0.7,0.5-1L47,30.9c0.7-0.8,1.6-1.3,2.8-1.3
						c0.1,0,0.2,0,0.4,0l1.9-11c0.4,0,0.9-0.1,1.2-0.2l-2,11.6C52.5,30.5,53.3,31.7,53.3,33.2z"/>
						<path class="st2" d="M36.8,24.4c0,0.2,0,0.4-0.1,0.6c0,0,0,0,0,0.1c0,0.1,0,0.1,0,0.2s0,0.1-0.1,0.2c-0.1,0.4-0.3,0.7-0.5,1
							c-0.4,0.5-0.8,0.8-1.3,1.1c-0.1,0.1-0.2,0.1-0.3,0.1c0,0,0,0,0,0c-0.1,0-0.2,0.1-0.3,0.1c-0.1,0-0.2,0-0.2,0c0,0-0.1,0-0.1,0
							c-0.2,0-0.3,0-0.5,0c-0.2,0-0.4,0-0.6-0.1c-0.2,0-0.4-0.1-0.6-0.2c0,0-0.1,0-0.2-0.1c-0.1-0.1-0.2-0.1-0.4-0.2
							c-0.1-0.1-0.2-0.1-0.3-0.2c0,0,0,0,0,0c-0.3-0.2-0.6-0.5-0.8-0.8c0-0.1-0.1-0.1-0.1-0.2c-0.2-0.3-0.3-0.6-0.4-1c0-0.1,0-0.2,0-0.3
							c0-0.1,0-0.2,0-0.3c0-0.1,0-0.2,0-0.3c0-0.3,0.1-0.7,0.1-1c0.1-0.4,0.3-0.8,0.5-1.1c0.5-0.8,1.4-1.3,2.4-1.5v0
							c0.2,0,0.4-0.1,0.6-0.1c0.2,0,0.4,0,0.6,0.1c0.1,0,0.2,0,0.4,0.1c0.1,0,0.2,0.1,0.3,0.1s0.2,0.1,0.3,0.1c0.1,0,0.2,0.1,0.3,0.2
							s0.2,0.1,0.3,0.2c0.1,0.1,0.2,0.2,0.3,0.2c0.1,0.1,0.1,0.1,0.2,0.2c0.1,0.1,0.2,0.2,0.3,0.3c0.2,0.3,0.4,0.7,0.5,1.1
							c0,0.1,0.1,0.3,0.1,0.4C36.8,24,36.8,24.2,36.8,24.4z"/>
							<path class="st2" d="M15,37.1c0,0.1,0,0.2,0,0.4c0,0,0,0,0,0c0,0.2-0.1,0.5-0.1,0.7c-0.1,0.2-0.1,0.4-0.2,0.5
								c0,0.1-0.1,0.2-0.1,0.2c0,0,0,0,0,0.1c-0.2,0.4-0.6,0.7-0.9,1c0,0,0,0,0,0c-0.4,0.3-0.9,0.5-1.4,0.6c-0.3,0.1-0.6,0.1-0.8,0.1
								c-0.1,0-0.2,0-0.3,0c-1.9-0.2-3.4-1.7-3.4-3.7c0-1.9,1.5-3.5,3.3-3.7c0.1,0,0.2,0,0.4,0c0.3,0,0.5,0,0.8,0.1
								c1.4,0.3,2.4,1.3,2.8,2.7C15,36.5,15,36.8,15,37.1z"/>
								<path class="st3" d="M50.4,53.9c0,2-1.6,3.7-3.7,3.7c-1.8,0-3.3-1.3-3.6-3c0-0.2-0.1-0.4-0.1-0.7c0-0.2,0-0.3,0-0.5
									c0.1-0.6,0.3-1.1,0.6-1.6c0.2-0.3,0.5-0.6,0.8-0.8c0,0,0,0,0,0c0.5-0.4,1.1-0.6,1.7-0.7c0.2,0,0.3,0,0.5,0c0.2,0,0.5,0,0.7,0.1
									C49.2,50.6,50.4,52.1,50.4,53.9z"/>
									<circle class="st3" cx="14.5" cy="19.4" r="3.7"/>
									<path class="st3" d="M55.7,14.9c0,0.1,0,0.2,0,0.4c0,0.2,0,0.3-0.1,0.5c0,0.1-0.1,0.2-0.1,0.3c-0.3,1.1-1.2,1.9-2.2,2.3
										c-0.4,0.1-0.8,0.2-1.2,0.2h0c-0.8,0-1.6-0.3-2.2-0.8c-0.3-0.2-0.6-0.6-0.9-0.9c-0.4-0.6-0.6-1.3-0.6-2c0-0.6,0.1-1.2,0.4-1.7
										c0.2-0.4,0.4-0.7,0.7-1c0.7-0.6,1.6-1,2.6-1c1.2,0,2.3,0.6,2.9,1.5c0.2,0.3,0.4,0.6,0.5,0.9C55.6,14,55.7,14.5,55.7,14.9z"/>
									</g>
									<rect y="0" class="st4" width="63.3" height="63.3"/>
								</g>
							</svg>