<!-- Generator: Adobe Illustrator 23.0.1, SVG Export Plug-In  -->
<svg version="1.1" xmlns="http://www.w3.org/2000/svg" xmlns:xlink="http://www.w3.org/1999/xlink" x="0px" y="0px" width="400px"
	 height="200px" viewBox="0 0 400 200" style="enable-background:new 0 0 400 200;" xml:space="preserve">
<style type="text/css">
	.st0{fill:none;}
</style>
<defs>
</defs>
<g>
	<path d="M43.18,126.13c-15.93,0-27.04-11.39-27.04-26.13c0-14.67,11.25-26.13,26.83-26.13c7.48,0,12.93,2.1,15.79,3.42v9.92
		c-3.28-1.54-8.32-3.49-15.09-3.49c-10.41,0-16.7,7.34-16.7,16.28c0,9.08,6.29,16.35,16.21,16.35c2.45,0,5.1-0.42,6.85-0.98v-13.42
		H60.3v20.33C55.83,124.6,49.33,126.13,43.18,126.13z"/>
	<path d="M109.98,99.86c0.49,5.94-0.42,11.53-3.56,16.35l8.59,8.94h-11.46l-3.07-3.21c-3.56,2.72-8.11,4.19-13.42,4.19
		c-12.58,0-18.87-6.5-18.87-14.04c0-6.43,4.82-10.62,9.78-13.35c-3.14-3.42-5.24-6.71-5.24-12.09c0-6.71,6.22-12.79,14.25-12.79
		c7.76,0,14.18,5.87,14.18,12.44c0,7.97-6.15,12.09-10.06,13.98l8.52,8.8c1.19-2.87,1.61-6.08,1.4-9.22H109.98z M83.22,104.19
		c-2.66,1.47-5.24,3.7-5.24,6.99c0,3.84,3.49,6.71,9.15,6.71c2.59,0,5.1-0.84,7.06-2.38L83.22,104.19z M85.66,94.69
		c2.79-1.47,6.57-3.98,6.57-7.48c0-2.86-2.31-5.1-5.24-5.1c-2.93,0-5.31,2.24-5.31,5.1C81.68,90.15,83.22,92.03,85.66,94.69z"/>
	<path d="M135.34,99.16l-2.66-2.31v28.3h-10.27V74.08h0.21l23.97,24.18l23.97-24.18h0.21v51.08h-10.27v-28.3l-2.66,2.31
		c-3.7,4.05-7.48,8.11-11.25,12.09C142.81,107.27,139.11,103.21,135.34,99.16z"/>
	<path d="M199.61,125.15V74.85h10.76v41.3h19.35v9.01H199.61z"/>
	<path d="M235.67,91.62c1.96-0.91,6.64-2.38,12.79-2.38c10.76,0,16.14,5.17,16.14,13.91v22.01h-9.43l-0.21-3.21
		c-0.07-1.47,0.14-2.45,0.14-2.45h-0.14c-0.91,2.1-4.4,6.64-10.83,6.64c-6.01,0-11.11-3.49-11.11-10.62
		c0-8.52,8.67-12.72,21.24-10.97v-0.84c0-4.19-2.86-5.73-7.48-5.73c-4.4,0-8.8,1.54-11.11,3V91.62z M253.97,109.99
		c-7.83-1.26-11.11,1.19-11.11,4.47c0,2.24,1.54,3.7,3.98,3.7C250.9,118.17,253.97,114.46,253.97,109.99z"/>
	<path d="M296.73,125.15l-0.28-3.98c-0.07-1.26,0.14-2.1,0.28-2.45h-0.14c-1.47,3.21-6.08,7.41-11.88,7.41
		c-7.9,0-12.16-4.82-12.16-14.04V90.22h10.48v20.12c0,3.49,0.98,6.29,4.75,6.29c4.75,0,8.04-3.77,8.04-9.01v-17.4h10.41v34.94
		H296.73z"/>
	<path d="M333.41,116.98c4.19,0,7.97-1.96,9.29-2.87v9.43c-1.4,0.7-5.03,2.59-10.69,2.59c-11.18,0-18.59-7.83-18.59-18.45
		s7.41-18.45,18.59-18.45c5.59,0,9.08,1.82,10.48,2.52v9.5c-1.96-1.4-5.45-2.87-9.08-2.87c-5.52,0-9.43,3.63-9.43,9.29
		C323.98,113.35,327.75,116.98,333.41,116.98z"/>
	<path d="M360.24,74.85v17.33c0,1.61-0.14,3.14-0.14,3.84c1.82-2.87,5.87-6.78,11.6-6.78c7.9,0,12.16,4.82,12.16,14.04v21.87h-10.48
		v-20.12c0-3.42-0.98-6.29-4.75-6.29c-4.89,0-8.18,3.77-8.18,9.01v17.4h-10.48V74.85H360.24z"/>
</g>
<rect class="st0" width="400" height="200"/>
</svg>